<svg width="228" height="228" viewBox="0 0 228 228" fill="none" xmlns="http://www.w3.org/2000/svg">
<g filter="url(#filter0_d_412_37)">
<rect x="4" width="220" height="220" rx="25" fill="#C9E5EA"/>
<path d="M51.0874 53V35.5455H62.8487V38.5881H54.7777V42.7472H62.2436V45.7898H54.7777V49.9574H62.8828V53H51.0874ZM69.3452 35.5455V53H65.7145V35.5455H69.3452ZM78.2195 53.2557C76.8729 53.2557 75.7138 52.983 74.7422 52.4375C73.7763 51.8864 73.032 51.108 72.5092 50.1023C71.9865 49.0909 71.7251 47.8949 71.7251 46.5142C71.7251 45.1676 71.9865 43.9858 72.5092 42.9688C73.032 41.9517 73.7678 41.1591 74.7166 40.5909C75.6712 40.0227 76.7905 39.7386 78.0746 39.7386C78.9382 39.7386 79.7422 39.8778 80.4865 40.1562C81.2365 40.429 81.8899 40.8409 82.4467 41.392C83.0092 41.9432 83.4467 42.6364 83.7592 43.4716C84.0717 44.3011 84.228 45.2727 84.228 46.3864V47.3835H73.174V45.1335H80.8104C80.8104 44.6108 80.6967 44.1477 80.4695 43.7443C80.2422 43.3409 79.9268 43.0256 79.5234 42.7983C79.1257 42.5653 78.6626 42.4489 78.1342 42.4489C77.5831 42.4489 77.0945 42.5767 76.6683 42.8324C76.2479 43.0824 75.9183 43.4205 75.6797 43.8466C75.4411 44.267 75.3189 44.7358 75.3132 45.2528V47.392C75.3132 48.0398 75.4325 48.5994 75.6712 49.071C75.9155 49.5426 76.2592 49.9062 76.7024 50.1619C77.1456 50.4176 77.6712 50.5455 78.2791 50.5455C78.6825 50.5455 79.0518 50.4886 79.3871 50.375C79.7223 50.2614 80.0092 50.0909 80.2479 49.8636C80.4865 49.6364 80.6683 49.358 80.7933 49.0284L84.1513 49.25C83.9808 50.0568 83.6314 50.7614 83.103 51.3636C82.5803 51.9602 81.9041 52.4261 81.0746 52.7614C80.2507 53.0909 79.299 53.2557 78.2195 53.2557ZM89.8871 49.233L89.8956 44.8778H90.424L94.6172 39.9091H98.7848L93.1513 46.4886H92.2905L89.8871 49.233ZM86.5973 53V35.5455H90.228V53H86.5973ZM94.7791 53L90.9268 47.2983L93.3473 44.733L99.032 53H94.7791ZM107.529 39.9091V42.6364H99.6456V39.9091H107.529ZM101.435 36.7727H105.066V48.9773C105.066 49.3125 105.117 49.5739 105.219 49.7614C105.322 49.9432 105.464 50.071 105.646 50.1449C105.833 50.2187 106.049 50.2557 106.293 50.2557C106.464 50.2557 106.634 50.2415 106.805 50.2131C106.975 50.179 107.106 50.1534 107.197 50.1364L107.768 52.8381C107.586 52.8949 107.33 52.9602 107.001 53.0341C106.671 53.1136 106.271 53.1619 105.799 53.179C104.924 53.2131 104.157 53.0966 103.498 52.8295C102.844 52.5625 102.336 52.1477 101.972 51.5852C101.609 51.0227 101.43 50.3125 101.435 49.4545V36.7727ZM109.894 53V39.9091H113.414V42.1932H113.55C113.789 41.3807 114.19 40.767 114.752 40.3523C115.315 39.9318 115.962 39.7216 116.695 39.7216C116.877 39.7216 117.073 39.733 117.283 39.7557C117.494 39.7784 117.678 39.8097 117.837 39.8494V43.071C117.667 43.0199 117.431 42.9744 117.13 42.9347C116.829 42.8949 116.553 42.875 116.303 42.875C115.769 42.875 115.292 42.9915 114.871 43.2244C114.457 43.4517 114.127 43.7699 113.883 44.179C113.644 44.5881 113.525 45.0597 113.525 45.5938V53H109.894ZM125.02 53.2557C123.696 53.2557 122.551 52.9744 121.585 52.4119C120.625 51.8437 119.884 51.054 119.361 50.0426C118.838 49.0256 118.577 47.8466 118.577 46.5057C118.577 45.1534 118.838 43.9716 119.361 42.9602C119.884 41.9432 120.625 41.1534 121.585 40.5909C122.551 40.0227 123.696 39.7386 125.02 39.7386C126.344 39.7386 127.486 40.0227 128.446 40.5909C129.412 41.1534 130.156 41.9432 130.679 42.9602C131.202 43.9716 131.463 45.1534 131.463 46.5057C131.463 47.8466 131.202 49.0256 130.679 50.0426C130.156 51.054 129.412 51.8437 128.446 52.4119C127.486 52.9744 126.344 53.2557 125.02 53.2557ZM125.037 50.4432C125.639 50.4432 126.142 50.2727 126.545 49.9318C126.949 49.5852 127.253 49.1136 127.457 48.517C127.668 47.9205 127.773 47.2415 127.773 46.4801C127.773 45.7188 127.668 45.0398 127.457 44.4432C127.253 43.8466 126.949 43.375 126.545 43.0284C126.142 42.6818 125.639 42.5085 125.037 42.5085C124.429 42.5085 123.918 42.6818 123.503 43.0284C123.094 43.375 122.784 43.8466 122.574 44.4432C122.369 45.0398 122.267 45.7188 122.267 46.4801C122.267 47.2415 122.369 47.9205 122.574 48.517C122.784 49.1136 123.094 49.5852 123.503 49.9318C123.918 50.2727 124.429 50.4432 125.037 50.4432ZM133.824 53V39.9091H137.284V42.2188H137.438C137.71 41.4517 138.165 40.8466 138.801 40.4034C139.438 39.9602 140.199 39.7386 141.085 39.7386C141.983 39.7386 142.747 39.9631 143.378 40.4119C144.009 40.8551 144.429 41.4574 144.639 42.2188H144.776C145.043 41.4688 145.526 40.8693 146.224 40.4205C146.929 39.9659 147.761 39.7386 148.722 39.7386C149.943 39.7386 150.935 40.1278 151.696 40.9062C152.463 41.679 152.847 42.7756 152.847 44.196V53H149.224V44.9119C149.224 44.1847 149.031 43.6392 148.645 43.2756C148.259 42.9119 147.776 42.7301 147.196 42.7301C146.537 42.7301 146.023 42.9403 145.653 43.3608C145.284 43.7756 145.099 44.3239 145.099 45.0057V53H141.58V44.8352C141.58 44.1932 141.395 43.6818 141.026 43.3011C140.662 42.9205 140.182 42.7301 139.585 42.7301C139.182 42.7301 138.818 42.8324 138.494 43.0369C138.176 43.2358 137.923 43.517 137.736 43.8807C137.548 44.2386 137.455 44.6591 137.455 45.142V53H133.824ZM161.68 53.2557C160.334 53.2557 159.175 52.983 158.203 52.4375C157.237 51.8864 156.493 51.108 155.97 50.1023C155.447 49.0909 155.186 47.8949 155.186 46.5142C155.186 45.1676 155.447 43.9858 155.97 42.9688C156.493 41.9517 157.229 41.1591 158.178 40.5909C159.132 40.0227 160.251 39.7386 161.536 39.7386C162.399 39.7386 163.203 39.8778 163.947 40.1562C164.697 40.429 165.351 40.8409 165.908 41.392C166.47 41.9432 166.908 42.6364 167.22 43.4716C167.533 44.3011 167.689 45.2727 167.689 46.3864V47.3835H156.635V45.1335H164.271C164.271 44.6108 164.158 44.1477 163.93 43.7443C163.703 43.3409 163.388 43.0256 162.984 42.7983C162.587 42.5653 162.124 42.4489 161.595 42.4489C161.044 42.4489 160.555 42.5767 160.129 42.8324C159.709 43.0824 159.379 43.4205 159.141 43.8466C158.902 44.267 158.78 44.7358 158.774 45.2528V47.392C158.774 48.0398 158.893 48.5994 159.132 49.071C159.376 49.5426 159.72 49.9062 160.163 50.1619C160.607 50.4176 161.132 50.5455 161.74 50.5455C162.143 50.5455 162.513 50.4886 162.848 50.375C163.183 50.2614 163.47 50.0909 163.709 49.8636C163.947 49.6364 164.129 49.358 164.254 49.0284L167.612 49.25C167.442 50.0568 167.092 50.7614 166.564 51.3636C166.041 51.9602 165.365 52.4261 164.536 52.7614C163.712 53.0909 162.76 53.2557 161.68 53.2557ZM159.737 34.4716L161.45 36.5511L163.163 34.4716H166.257V34.5909L162.797 38.3409H160.095L156.643 34.5909V34.4716H159.737ZM170.058 53V39.9091H173.578V42.1932H173.714C173.953 41.3807 174.354 40.767 174.916 40.3523C175.479 39.9318 176.126 39.7216 176.859 39.7216C177.041 39.7216 177.237 39.733 177.447 39.7557C177.658 39.7784 177.842 39.8097 178.001 39.8494V43.071C177.831 43.0199 177.595 42.9744 177.294 42.9347C176.993 42.8949 176.717 42.875 176.467 42.875C175.933 42.875 175.456 42.9915 175.036 43.2244C174.621 43.4517 174.291 43.7699 174.047 44.179C173.808 44.5881 173.689 45.0597 173.689 45.5938V53H170.058Z" fill="#0AA9C5"/>
</g>
<defs>
<filter id="filter0_d_412_37" x="0" y="0" width="228" height="228" filterUnits="userSpaceOnUse" color-interpolation-filters="sRGB">
<feFlood flood-opacity="0" result="BackgroundImageFix"/>
<feColorMatrix in="SourceAlpha" type="matrix" values="0 0 0 0 0 0 0 0 0 0 0 0 0 0 0 0 0 0 127 0" result="hardAlpha"/>
<feOffset dy="4"/>
<feGaussianBlur stdDeviation="2"/>
<feComposite in2="hardAlpha" operator="out"/>
<feColorMatrix type="matrix" values="0 0 0 0 0 0 0 0 0 0 0 0 0 0 0 0 0 0 0.25 0"/>
<feBlend mode="normal" in2="BackgroundImageFix" result="effect1_dropShadow_412_37"/>
<feBlend mode="normal" in="SourceGraphic" in2="effect1_dropShadow_412_37" result="shape"/>
</filter>
</defs>
</svg>
