<svg width="281" height="54" viewBox="0 0 281 54" fill="none" xmlns="http://www.w3.org/2000/svg">
<g clip-path="url(#clip0_1_103)">
<path d="M268.9 36.3C268.1 36.3 267.4 35.8 267.1 35.1L265.6 31.6L264.1 35.1C263.8 35.8 263.1 36.3 262.3 36.3C261.5 36.3 260.8 35.8 260.6 35.1L256.9 25.2C256.5 24.2 257 23.1 258 22.8C259 22.4 260.1 22.9 260.4 23.9L262.4 29.3L263.7 26.3C264 25.6 264.7 25.1 265.5 25.1H265.6C266.4 25.1 267.1 25.6 267.4 26.3L268.7 29.3L270.7 23.9C271.1 22.9 272.2 22.4 273.1 22.8C274.1 23.2 274.6 24.3 274.2 25.2L270.5 35.1C270.5 35.8 269.8 36.3 268.9 36.3C269 36.3 269 36.3 268.9 36.3ZM223.2 53.2C222.1 53.2 221.3 52.3 221.3 51.3V1.9C221.3 0.8 222.2 0 223.2 0C224.2 0 225.1 0.9 225.1 1.9V51.3C225.1 52.4 224.2 53.2 223.2 53.2Z" fill="#2C3D5B"/>
<path d="M42.3 14.4C42.7 14.7 42.8 15.2 42.8 15.8C42.8 15.8 42.7 16.1 42.6 16.6L32.9 45.6C32.7 46 32.4 46.3 32.1 46.5C31.8 46.7 31.4 46.8 31 46.8C30.6 46.8 30.3 46.7 30 46.5C29.7 46.3 29.5 46 29.3 45.6L21 26.2L13.6 45.6C13.4 45.9 13.2 46.2 12.9 46.5C12.6 46.7 12.3 46.8 11.9 46.8C11.5 46.8 11.1 46.7 10.7 46.5C10.3 46.3 10.1 46 10 45.6L0 16.6C0.1 16.3 0 16.1 0 15.8C0 15.3 0.2 14.8 0.6 14.4C1 14 1.4 13.9 2 13.9C2.4 13.9 2.7 14 3 14.2C3.3 14.4 3.5 14.7 3.7 15.1L12 40.3L19.5 21.5C19.8 20.7 20.4 20.3 21.3 20.3C22.1 20.3 22.7 20.7 23.1 21.5L31 40.2L39.3 15.2C39.6 14.4 40.1 13.9 41.1 13.9C41.5 13.9 42 14.1 42.3 14.4ZM94.6 18.2V39.3C94.6 40.9 94.9 42 95.5 42.5C96.1 43.1 96.9 43.4 97.8 43.4C98.1 43.4 98.4 43.3 98.7 43.2C99.1 43.1 99.4 43 99.6 43C100 43 100.3 43.2 100.6 43.5C100.9 43.8 101 44.2 101 44.6C101 45.2 100.7 45.7 100 46.1C99.3 46.5 98.5 46.7 97.6 46.7C96.5 46.7 95.5 46.6 94.6 46.4C93.7 46.2 92.9 45.6 92 44.5C91.2 43.5 90.8 41.8 90.8 39.5V18.2H86.2C85.7 18.2 85.3 18 84.9 17.7C84.5 17.4 84.4 16.9 84.4 16.4C84.4 15.9 84.6 15.5 84.9 15.1C85.3 14.8 85.7 14.6 86.2 14.6H90.8V7.60001C90.8 7.10001 91 6.60001 91.3 6.20001C91.7 5.80001 92.1 5.70001 92.7 5.70001C93.2 5.70001 93.7 5.90001 94.1 6.20001C94.5 6.60001 94.6 7.00001 94.6 7.60001V14.6H100.9C101.4 14.6 101.8 14.8 102.1 15.2C102.5 15.6 102.6 16 102.6 16.5C102.6 17 102.4 17.4 102.1 17.7C101.8 18 101.3 18.2 100.8 18.2H94.6ZM116 18.2V39.3C116 40.9 116.3 42 116.9 42.5C117.5 43.1 118.3 43.4 119.2 43.4C119.5 43.4 119.8 43.3 120.1 43.2C120.5 43.1 120.8 43 121 43C121.4 43 121.7 43.2 122 43.5C122.3 43.8 122.4 44.2 122.4 44.6C122.4 45.2 122.1 45.7 121.4 46.1C120.7 46.5 119.9 46.7 119 46.7C117.9 46.7 116.9 46.6 116 46.4C115.1 46.2 114.3 45.6 113.4 44.5C112.6 43.5 112.2 41.8 112.2 39.5V18.2H107.6C107.1 18.2 106.7 18 106.3 17.7C105.9 17.4 105.8 16.9 105.8 16.4C105.8 15.9 106 15.5 106.3 15.1C106.7 14.8 107.1 14.6 107.6 14.6H112.2V7.60001C112.2 7.10001 112.4 6.60001 112.7 6.20001C113.1 5.80001 113.5 5.70001 114.1 5.70001C114.6 5.70001 115.1 5.90001 115.5 6.20001C115.9 6.60001 116 7.00001 116 7.60001V14.6H122.3C122.8 14.6 123.2 14.8 123.5 15.2C123.9 15.6 124 16 124 16.5C124 17 123.8 17.4 123.5 17.7C123.2 18 122.7 18.2 122.2 18.2H116ZM157.4 30.1C157 30.5 156.6 30.6 156.1 30.6H132.3C132.3 33.1 132.8 35.4 133.8 37.4C134.8 39.4 136.3 41 138.2 42.1C140.1 43.3 142.4 43.8 145 43.8C147 43.8 148.8 43.4 150.4 42.5C152 41.7 153.3 40.6 154.2 39.3C154.7 38.9 155.1 38.7 155.5 38.7C155.9 38.7 156.3 38.9 156.6 39.2C156.9 39.5 157.1 39.9 157.1 40.3C157.1 40.8 156.9 41.2 156.5 41.6C155.2 43.2 153.5 44.6 151.4 45.6C149.4 46.7 147.2 47.2 144.9 47.2C141.7 47.2 138.8 46.5 136.3 45.1C133.8 43.7 131.9 41.8 130.5 39.3C129.1 36.8 128.4 33.9 128.4 30.6C128.4 27.2 129.1 24.1 130.4 21.6C131.8 19 133.6 17 135.9 15.7C138.2 14.3 140.6 13.7 143.1 13.7C145.6 13.7 148 14.3 150.2 15.5C152.4 16.7 154.2 18.4 155.6 20.7C157 23 157.7 25.7 157.7 28.8C158 29.3 157.8 29.8 157.4 30.1ZM136.6 20C134.5 21.7 133.2 24.1 132.6 27.2H154.1V26.7C153.9 24.8 153.3 23.2 152.2 21.8C151.1 20.4 149.8 19.3 148.3 18.6C146.7 17.9 145.1 17.5 143.4 17.5C140.9 17.5 138.7 18.3 136.6 20ZM192.5 30.1C192.1 30.5 191.7 30.6 191.2 30.6H167.4C167.4 33.1 167.9 35.4 168.9 37.4C169.9 39.4 171.4 41 173.3 42.1C175.2 43.3 177.5 43.8 180.1 43.8C182.1 43.8 183.9 43.4 185.5 42.5C187.1 41.7 188.4 40.6 189.3 39.3C189.8 38.9 190.2 38.7 190.6 38.7C191 38.7 191.4 38.9 191.7 39.2C192 39.5 192.2 39.9 192.2 40.3C192.2 40.8 192 41.2 191.6 41.6C190.3 43.2 188.6 44.6 186.5 45.6C184.5 46.7 182.3 47.2 180 47.2C176.8 47.2 173.9 46.5 171.4 45.1C168.9 43.7 167 41.8 165.6 39.3C164.2 36.8 163.5 33.9 163.5 30.6C163.5 27.2 164.2 24.1 165.5 21.6C166.9 19 168.7 17 171 15.7C173.3 14.3 175.7 13.7 178.2 13.7C180.7 13.7 183.1 14.3 185.3 15.5C187.5 16.7 189.3 18.4 190.7 20.7C192.1 23 192.8 25.7 192.8 28.8C193 29.3 192.8 29.8 192.5 30.1ZM171.6 20C169.5 21.7 168.2 24.1 167.6 27.2H189.1V26.7C188.9 24.8 188.3 23.2 187.2 21.8C186.1 20.4 184.8 19.3 183.3 18.6C181.7 17.9 180.1 17.5 178.4 17.5C176 17.5 173.7 18.3 171.6 20ZM272.9 3.90001C272.9 1.80001 271.2 0.200012 269.1 0.200012H262.3C260.2 0.200012 258.5 1.90001 258.5 3.90001H272.9ZM278 53H253.5C251.9 53 250.5 51.7 250.5 50V8.00001C250.5 6.40001 251.8 5.00001 253.5 5.00001H278C279.6 5.00001 281 6.30001 281 8.00001V50C281 51.7 279.6 53 278 53ZM254.3 49.2H277.2V8.90001H254.3V49.2ZM76.5 14.6C75.5 14.6 74.6 15.5 74.6 16.5V19.6C71.8 16.1 67.8 13.9 63.3 13.9C55 13.9 48.2 21.4 48.2 30.7C48.2 39.9 55 47.5 63.3 47.5C67.8 47.5 71.8 45.3 74.6 41.8V45C74.6 46 75.5 46.9 76.5 46.9C77.5 46.9 78.4 46 78.4 45V16.5C78.4 15.4 77.6 14.6 76.5 14.6ZM63.4 43.6C57.2 43.6 52.1 37.8 52.1 30.6C52.1 23.4 57.2 17.6 63.4 17.6C69.6 17.6 74.7 23.4 74.7 30.6C74.7 37.8 69.6 43.6 63.4 43.6Z" fill="#45B7A1"/>
</g>
<defs>
<clipPath id="clip0_1_103">
<rect width="281" height="53.2" fill="white"/>
</clipPath>
</defs>
</svg>
