<svg width="53" height="31" viewBox="0 0 53 31" fill="none" xmlns="http://www.w3.org/2000/svg">
<g clip-path="url(#clip0_1_119)">
<path d="M32.631 22.269C31.831 22.269 31.131 21.769 30.831 21.069L29.331 17.569L27.831 21.069C27.531 21.769 26.831 22.269 26.031 22.269C25.231 22.269 24.531 21.769 24.331 21.069L20.631 11.169C20.231 10.169 20.731 9.06901 21.731 8.76901C22.731 8.36901 23.831 8.86899 24.131 9.86899L26.131 15.269L27.431 12.269C27.731 11.569 28.431 11.069 29.231 11.069H29.331C30.131 11.069 30.831 11.569 31.131 12.269L32.431 15.269L34.431 9.86899C34.831 8.86899 35.931 8.36901 36.831 8.76901C37.831 9.16901 38.331 10.269 37.931 11.169L34.231 21.069C34.231 21.769 33.531 22.269 32.631 22.269C32.731 22.269 32.731 22.269 32.631 22.269Z" fill="#2C3D5B"/>
<path d="M3.7 8.10001C1.6 8.10001 0 9.79999 0 11.9L0 18.7C0 20.8 1.7 22.5 3.7 22.5L3.7 8.10001Z" fill="#45B7A1"/>
<path d="M52.8 3V27.5C52.8 29.1 51.5 30.5 49.8 30.5L7.79999 30.5C6.19999 30.5 4.79999 29.2 4.79999 27.5L4.79999 3C4.79999 1.4 6.09999 0 7.79999 0L49.8 0C51.5 0 52.8 1.4 52.8 3ZM49 26.7V3.79999L8.69999 3.79999L8.69999 26.7L49 26.7Z" fill="#45B7A1"/>
</g>
<defs>
<clipPath id="clip0_1_119">
<rect width="52.8" height="30.5" fill="white"/>
</clipPath>
</defs>
</svg>
